<svg xmlns="http://www.w3.org/2000/svg" version="1.1" xmlns:xlink="http://www.w3.org/1999/xlink" xmlns:svgjs="http://svgjs.dev/svgjs" width="1000" height="1635" viewBox="0 0 1000 1635"><g transform="matrix(1,0,0,1,0.5324102880024384,0.6619433198379738)"><svg viewBox="0 0 151 247" data-background-color="#ffffff" preserveAspectRatio="xMidYMid meet" height="1635" width="1000" xmlns="http://www.w3.org/2000/svg" xmlns:xlink="http://www.w3.org/1999/xlink"><g id="tight-bounds" transform="matrix(1,0,0,1,-0.0803939534883682,-0.09999999999999432)"><svg viewBox="0 0 151.16078790697674 247.2" height="247.2" width="151.16078790697674"><g><svg viewBox="0 0 151.16078790697674 247.2" height="247.2" width="151.16078790697674"><g><svg viewBox="0 0 151.16078790697674 247.2" height="247.2" width="151.16078790697674"><g id="textblocktransform"><svg viewBox="0 0 151.16078790697674 247.2" height="247.2" width="151.16078790697674" id="textblock"><g><svg viewBox="0 0 151.16078790697674 247.2" height="247.2" width="151.16078790697674"><rect width="151.16078790697674" height="247.2" x="0" y="0" opacity="1" fill="#ed1703" data-fill-palette-color="tertiary"></rect><g transform="matrix(1,0,0,1,23.607599999999998,23.607600000000012)"><svg width="103.94558790697674" viewBox="0.55 -43 22.349999999999998 43" height="199.98479999999998" data-palette-color="#ffffff"><path d="M17.6 0L5.85 0 0.55-43 8.75-43 11.9-13.75 14.7-43 22.9-43 17.6 0Z" opacity="1" transform="matrix(1,0,0,1,0,0)" fill="#ffffff" class="wordmark-text-0" data-fill-palette-color="quaternary" id="text-0"></path></svg></g></svg></g></svg></g></svg></g></svg></g><defs></defs></svg><rect width="151.16078790697674" height="247.2" fill="none" stroke="none" visibility="hidden"></rect></g></svg></g></svg>